<?xml version="1.0" encoding="iso-8859-1" ?>
              <svg
                version="1.1"
                xmlns="http://www.w3.org/2000/svg"
                xmlns:xlink="http://www.w3.org/1999/xlink"
                viewBox="0 0 690 388.125"
                width="690"
                height="388.125"
              >
                <g transform="translate(267.375 343.537) scale(-0.455 -0.456) rotate(270 379.12087912087907 214.99999999999997)"><g clip-path="url(#clipPath_FNna3iTv5a0zkbj5FFl8X)"><defs>
          <clipPath id="clipPath_FNna3iTv5a0zkbj5FFl8X">
            <rect x="0" y="0" width="758.651" height="429.718" />
          </clipPath>
       </defs> <g id="Layer_3FNna3iTv5a0zkbj5FFl8X">  <path d="M0,428.518c2.4-77.6,9.7-178,35.1-251.4s77.6-141.5,151-166.6c56.6-19.3,120.6-10.9,174.1,15.9   s97.2,70.5,130.8,120c14.3,21,28.1,44.3,51,55.2c21.9,10.5,47.5,7.6,71.7,9.9c49.2,4.7,95.5,33.6,121.4,75.7s30.8,96.4,12.9,142.5   L0,428.518z" fill="rgb(244,134,148)"/> </g> </g></g><g transform="translate(460 176.094) scale(0.265 0.265) rotate(0 433.9622641509433 433.9622641509433)"><g clip-path="url(#clipPath_JVodPEqU7FQEn9Lq7lGYJ)"><defs>
          <clipPath id="clipPath_JVodPEqU7FQEn9Lq7lGYJ">
            <rect x="0" y="0" width="866.9" height="869.3" />
          </clipPath>
       </defs>  <title>abstract_gray_3</title> <path d="M7.5,151C35.1,54.4,143-2,243.4,0.1s193.9,50,279.2,103.1C625.7,167.4,725.1,243,792.1,344.4  c66.9,101.4,97.4,232.8,55.7,346.9S681.1,890.6,562.4,864.6c-42.1-9.3-80.4-30.9-116.8-54.1c-121-77.5-227.5-175.6-314.7-289.8  C61.1,429.2-26.4,269.6,7.5,151z" fill="#E5E5E5"/> </g></g>
              </svg>