<?xml version="1.0" encoding="iso-8859-1" ?>
              <svg
                version="1.1"
                xmlns="http://www.w3.org/2000/svg"
                xmlns:xlink="http://www.w3.org/1999/xlink"
                viewBox="0 0 495 495"
                width="495"
                height="495"
              >
                <g transform="translate(595.9999550310806 263.994) scale(-0.507 0.507) rotate(-117.65542359880061 369.86193293885606 114.16173570019726)"><g clip-path="url(#clipPath_okgr4TPcO3ImD8qYQTPtB)"><defs>
          <clipPath id="clipPath_okgr4TPcO3ImD8qYQTPtB">
            <rect x="0" y="0" width="739.03232" height="228.18994" />
          </clipPath>
       </defs>      <title>background13</title>   <g id="Слой_2okgr4TPcO3ImD8qYQTPtB" data-name="Слой 2">     <g id="Capa_1okgr4TPcO3ImD8qYQTPtB" data-name="Capa 1">       <path d="M709.3028,52.87745c-21.8-15.4-49.5-19-75.2-23.5-30.8-5.3-61.6-10.7-92.3-15.9-30.3-5.3-60.6-11.2-91.2-13-57-3.3-113.1,10.8-165,33.2-7.8,3.3-15.5,6.9-23.1,10.7-52.9,5.9-105.5,17.1-155.5,34.9-39.8,14.1-83.5,36.7-100.7,77.8-7.6,18-10.4,42,3.6,57.8,7.8,8.9,19.8,11.6,31.1,12.3,15.1,1.2,30.5,1,45.7,1,62.5-.1,125.1-2.6,187.6-4.1,62.6-1.5,125.3-3.5,187.8-7.4,56.3-3.6,113.3-8.5,167.6-25,25-7.6,50.7-17.3,72.5-32.1,17.6-11.9,34-28.7,36.6-50.8C741.00281,86.17744,727.10285,65.47743,709.3028,52.87745Z" style="         fill: #b6c8e8;       "/>     </g>   </g> </g></g>
              </svg>