<?xml version="1.0" encoding="iso-8859-1" ?>
              <svg
                version="1.1"
                xmlns="http://www.w3.org/2000/svg"
                xmlns:xlink="http://www.w3.org/1999/xlink"
                viewBox="0 0 600 400"
                width="600"
                height="400"
              >
                <g transform="translate(300 267.263) scale(0.845 0.845) rotate(0 177.5147928994083 78.54437869822486)"><g clip-path="url(#clipPath_8cjftnUxhT_Kp5l4p7sTt)"><defs>
          <clipPath id="clipPath_8cjftnUxhT_Kp5l4p7sTt">
            <rect x="0" y="0" width="355.114" height="157.014" />
          </clipPath>
       </defs><defs><linearGradient id="linear-gradient8cjftnUxhT_Kp5l4p7sTt" x1="177.557" y1="-634.986" x2="177.557" y2="-773.786" gradientTransform="translate(0 792)" gradientUnits="userSpaceOnUse"><stop offset="0" stop-color="#addcc8"/><stop offset="0.401" stop-color="#dbecc2"/><stop offset="0.501" stop-color="#fed3b5"/><stop offset="0.595" stop-color="#f4a9a6"/><stop offset="1" stop-color="#f48b94"/></linearGradient></defs><title>object_23</title><g id="Layer_28cjftnUxhT_Kp5l4p7sTt" data-name="Layer 2"><g id="Layer_1-28cjftnUxhT_Kp5l4p7sTt" data-name="Layer 1"><path d="M0,157.014H355.114V56.632c0-44.047-48.192-71.216-85.8-48.341-16.656,10.142-32.424,24.43-43.676,44.639C173.819,146.206,73.584,71.882,0,157.014Z" fill="url(#linear-gradient8cjftnUxhT_Kp5l4p7sTt)"/></g></g></g></g><g transform="translate(420.5 38) scale(1.244 1.24) rotate(0 47.82958199356913 138.70967741935485)"><g clip-path="url(#clipPath_0h5BPZPlAHqrQgWPMrg7b)"><defs>
          <clipPath id="clipPath_0h5BPZPlAHqrQgWPMrg7b">
            <rect x="0" y="0" width="95.685" height="277.339" />
          </clipPath>
       </defs> <g id="Layer_140h5BPZPlAHqrQgWPMrg7b">  <g>   <path d="M51.805,0.005c0,0-12.635-0.686-14.039,13.723c-1.404,14.409-0.209,18.487,1.501,21.286    c0.902,1.477,1.059,3.351,0.446,4.969c-0.733,1.933-6.411,2.488-6.411,2.488c-3.568,5.947,11.681,15.751,11.681,15.751    l16.864-5.046l-4.734-10.262c-0.387-1.45,0.16-3.868,1.172-4.976c1.298-1.419,2.558-3.356,3.127-5.859    c1.404-6.175,3.016-10.779,3.295-14.409C65.725,4.451,57.994,0,51.805,0.005z" fill="#FFCCBC"/>   <path d="M50.202,52.685c0,0-1.349,1.555-3.97,2.379l-2.333-2.116l2.797-5.94L50.202,52.685z" fill="#64B5F6"/>   <g>    <path d="M22.637,220.542c0,15,2.999,26.125,2.999,31.672c0,1,0,3,0,3v2h8v-5c0-5.319,5-18.625,5-29.5" fill="#FFCCBC"/>    <path d="M22.381,264.4c-2.073,3.687-3.37,5.617-3.37,8.135c0,3.254,3.099,4.803,3.099,4.803     s9.917,0,11.776-8.677c1.069-4.99,3.719-4.958,3.719-8.677c0-2.247-1.24-6.198-1.24-6.198s-1.24,1.24-6.198,1.24     c-3.719,0-3.719-1.24-3.719-1.24S26.875,256.407,22.381,264.4z" fill="rgb(221,192,192)"/>   </g>   <g>    <path d="M72.095,220.542c0,15-2.999,26.125-2.999,31.672c0,1,0,3,0,3v2h-8v-5c0-5.319-5-18.625-5-29.5" fill="#FFCCBC"/>    <path d="M73.482,264.4c2.073,3.687,3.37,5.617,3.37,8.135c0,3.254-3.099,4.803-3.099,4.803     s-9.917,0-11.776-8.677c-1.069-4.99-3.719-4.958-3.719-8.677c0-2.247,1.24-6.198,1.24-6.198s1.24,1.24,6.198,1.24     c3.719,0,3.719-1.24,3.719-1.24S68.988,256.407,73.482,264.4z" fill="rgb(221,192,192)"/>   </g>   <path d="M74.968,134.826l-27.011,0.048h-0.155h-0.155l-27.011-0.048c0,0,0,37.871,1.546,60.707    c-1.546,19.542,1.558,62.515,1.558,62.515s2.04,2.541,7.987,2.541s6.75-3.125,6.75-3.125s6.791-45.957,6.102-62.87    c1.152-7.409,2.624-27.593,3.165-34.402c0.581,6.884,2.133,27.019,3.281,34.402c-0.69,16.913,5.952,63.37,5.952,63.37    s0.928,2.625,6.875,2.625s8.011-2.541,8.011-2.541s3.104-42.973,1.558-62.515C74.968,172.696,74.968,134.826,74.968,134.826z" fill="#0D47A1"/>   <path d="M51.805,0.005c0,0-12.635-0.686-14.039,13.723c-0.324,3.326-0.573,6.102-0.743,8.438    c-0.237,3.247,1.633,2.125,2.282-1.049c0.996-4.871,2.384-11.759,5.011-10.967c2.568,0.775,11.901,2.164,14.867,1.883    c3.667-0.347,2.265,6.451,3.124,10.569c0.42,2.014,1.483,3.324,1.582,2.655c0.439-2.952,0.654-5.439,0.819-7.586    C65.725,4.451,57.994,0,51.805,0.005z" fill="rgb(221,192,192)"/>       <ellipse transform="matrix(0.19 -0.9818 0.9818 0.19 24.0422 82.6256)" cx="62.096" cy="26.742" rx="4.163" ry="3.568" fill="#FFCCBC"/>   <ellipse cx="38.284" cy="24.383" rx="3.568" ry="4.163" fill="#FFCCBC"/>   <path d="M18.234,101.927l7.273,8.629l-7.273,13.541c0,0-7.445-7.082-9.23-9.973    C6.995,110.87,9.375,101.927,18.234,101.927z" fill="rgb(254,225,225)"/>   <g>    <path d="M77.452,101.927l-7.273,8.629l7.273,13.541c0,0,7.445-7.082,9.23-9.973     C88.69,110.87,86.31,101.927,77.452,101.927z" fill="rgb(254,225,225)"/>    <path d="M82.602,54.743c-2.2-2.89-6.185-6.221-10.705-7.517c-4.865-1.392-14.783-4.312-14.783-4.312     s-1.277,4.752-10.882,10.96c-3.776-3.235-12.93-11.403-12.93-11.403s-4.649,0.984-9.514,2.376     c-4.52,1.297-8.504,4.627-10.705,7.517C5.281,62.582,1.308,80.327,0,97.17c3.354,20.672,18.234,26.928,18.234,26.928     s-14.273-17.02,0-22.17l1.986-15.451v49.955H47.25h28.215V86.477l1.986,15.451c14.273,5.15,0,22.17,0,22.17     s14.879-6.256,18.233-26.928C94.377,80.327,90.404,64.961,82.602,54.743z" fill="rgb(255,255,255)"/>   </g>   <rect x="17.709" y="81.684" width="60.294" height="44.729" fill="#B71C1C"/>   <rect x="21.277" y="85.252" width="53.158" height="37.593" fill="#FFFFFF"/>   <path d="M11.247,103.686c0.582-2.753,2.625-5.059,5.359-5.726c0.284-0.069,0.547-0.11,0.774-0.11    c1.586,0,5.352,1.586,5.551,4.163c0.198,2.577,0.329,12.508-5.222,13.4v4.857C17.709,120.269,8.873,114.913,11.247,103.686z" fill="#FFCCBC"/>   <path d="M84.438,103.686c-0.582-2.753-2.625-5.059-5.359-5.726c-0.284-0.069-0.547-0.11-0.774-0.11    c-1.586,0-5.352,1.586-5.551,4.163c-0.198,2.577-0.329,12.508,5.222,13.4v4.857C77.976,120.269,86.812,114.913,84.438,103.686z" fill="#FFCCBC"/>   <path d="M52.962,44.148c-1.524,0.948-2.866,1.08-6.266,2.86c1.109,2.652,2.944,5.915,4.749,8.153    c0,0,1.768-1.091,6.582-4.702c3.761-2.821,3.844-6.148,3.844-6.148s-2.393-1.254-4.679-4.044    C57.193,40.268,57.422,41.373,52.962,44.148z" fill="#90CAF9"/>   <path d="M46.696,47.008c0,0-2.495,7.329-5.116,8.153c0,0-5.37-8.127-8.279-12.689    c2.909-2.635,6.685-3.565,6.685-3.565C41.575,40.589,44.951,46.098,46.696,47.008z" fill="#90CAF9"/>   <g>    <rect x="36.984" y="94.456" width="3.837" height="19.185" fill="#B71C1C"/>    <rect x="47.216" y="94.456" width="3.837" height="19.185" fill="#B71C1C"/>    <rect x="54.89" y="100.851" width="3.837" height="12.79" fill="#B71C1C"/>    <rect x="54.89" y="94.456" width="3.837" height="3.837" fill="#B71C1C"/>         <rect x="42.1" y="99.572" transform="matrix(6.123234e-17 -1 1 6.123234e-17 -60.0294 148.067)" width="3.837" height="8.953" fill="#B71C1C"/>   </g>  </g> </g> <g id="Isolation_Mode0h5BPZPlAHqrQgWPMrg7b"> </g> </g></g><g transform="translate(0 297.187) scale(0.777 0.78) rotate(0 193.05019305019306 65.9102564102564)"><g clip-path="url(#clipPath_r8IR7nHiEoXQK48voMOV_)"><defs>
          <clipPath id="clipPath_r8IR7nHiEoXQK48voMOV_">
            <rect x="0" y="0" width="385.975" height="131.852" />
          </clipPath>
       </defs><defs><linearGradient id="linear-gradientr8IR7nHiEoXQK48voMOV_" y1="-679.726" x2="88.307" y2="-679.726" gradientTransform="translate(0 792)" gradientUnits="userSpaceOnUse"><stop offset="0" stop-color="#ffd8a1"/><stop offset="0.996" stop-color="#fff"/></linearGradient><linearGradient id="linear-gradient-2r8IR7nHiEoXQK48voMOV_" x1="90.427" y1="-726.074" x2="385.975" y2="-726.074" xlink:href="#linear-gradient"/></defs><title>object_16</title><g id="Layer_2r8IR7nHiEoXQK48voMOV_" data-name="Layer 2"><g id="Layer_1-2r8IR7nHiEoXQK48voMOV_" data-name="Layer 1"><path d="M88.307,131.852c-31.314,0-46.12-34.127-63.516-38.569s-37.015,17.1-15.028,38.569Z" fill="url(#linear-gradientr8IR7nHiEoXQK48voMOV_)"/><path d="M385.975,131.852c-74.4,0-90.389-65.516-139.988-71.364-66.107-7.773-45.6-33.609-100.974-58.26-20.8-9.254-69.883,10.808-49.9,51.079,10.067,20.358,43.75,74.843,46.489,78.545Z" fill="url(#linear-gradient-2r8IR7nHiEoXQK48voMOV_)"/></g></g></g></g>
              </svg>